<?xml version="1.0" encoding="UTF-8"?>
<svg width="196px" height="64px" viewBox="0 0 196 64" version="1.1" xmlns="http://www.w3.org/2000/svg" xmlns:xlink="http://www.w3.org/1999/xlink">
    <title>1 - Elements / Logos / VyStar / Mark + Type</title>
    <defs>
        <path d="M151.858116,50.9265947 L151.858116,56.1525608 C151.858116,58.0340521 152.707336,58.8437898 154.183599,58.8437898 C155.660222,58.8437898 156.496161,58.0340521 156.496161,56.1525608 L156.496161,50.9265947 L158.168398,50.9265947 L158.168398,56.2178854 C158.168398,58.8829127 156.666292,60.3333337 154.170678,60.3333337 C151.662142,60.3333337 150.159677,58.8829127 150.159677,56.2178854 L150.159677,50.9265947 L151.858116,50.9265947 Z M110.27005,50.9265947 C111.759594,50.9265947 113.039884,51.4621126 113.888744,52.4552615 L112.791507,53.4871745 C112.12534,52.7686042 111.302322,52.4161386 110.348655,52.4161386 C108.454242,52.4161386 107.082067,53.7484728 107.082067,55.6299642 C107.082067,57.5110966 108.454242,58.8437898 110.348655,58.8437898 C111.302322,58.8437898 112.12534,58.4909653 112.791507,57.7594736 L113.888744,58.8046668 C113.039884,59.7974568 111.759594,60.3333337 110.25677,60.3333337 C107.461093,60.3333337 105.370707,58.3603161 105.370707,55.6299642 C105.370707,52.8992533 107.461093,50.9265947 110.27005,50.9265947 Z M135.146151,50.9265947 L135.146151,60.2026845 L133.578361,60.2026845 L133.578361,59.3010618 C133.029563,59.9675878 132.219826,60.2938518 131.266158,60.2938518 C129.240738,60.2938518 127.738272,58.8829127 127.738272,56.7142804 C127.738272,54.545648 129.240738,53.1476303 131.266158,53.1476303 C132.167422,53.1476303 132.964239,53.4480515 133.512678,54.088376 L133.512678,50.9265947 L135.146151,50.9265947 Z M174.467598,53.1476303 C176.63623,53.1476303 178.191099,54.6238939 178.191099,56.7142804 C178.191099,58.8046668 176.63623,60.2938518 174.467598,60.2938518 C172.325167,60.2938518 170.757018,58.8046668 170.757018,56.7142804 C170.757018,54.6238939 172.325167,53.1476303 174.467598,53.1476303 Z M142.174645,50.9265947 L142.174645,53.2258762 L144.042856,53.2258762 L144.042856,54.5323677 L142.174645,54.5323677 L142.174645,57.903403 C142.174645,58.5824914 142.514548,58.9482373 143.141592,58.9482373 C143.481495,58.9482373 143.807759,58.85707 144.056136,58.6607374 L144.513408,59.8236584 C144.121461,60.137001 143.53354,60.2938518 142.945618,60.2938518 C141.416952,60.2938518 140.541889,59.4841142 140.541889,57.942167 L140.541889,54.5323677 L139.39189,54.5323677 L139.39189,53.2258762 L140.541889,53.2258762 L140.541889,50.9265947 L142.174645,50.9265947 Z M123.330299,53.1476303 C125.368641,53.1476303 126.858185,54.5714907 126.858185,56.7534033 C126.858185,56.8840525 126.844905,57.0800262 126.831984,57.236877 L121.357641,57.236877 C121.553614,58.2558686 122.402834,58.9091143 123.617799,58.9091143 C124.401694,58.9091143 125.015817,58.6607374 125.512212,58.151421 L126.387633,59.1571324 C125.760589,59.9019043 124.78072,60.2938518 123.578676,60.2938518 C121.240272,60.2938518 119.724526,58.7913865 119.724526,56.7142804 C119.724526,54.6368153 121.253193,53.1476303 123.330299,53.1476303 Z M138.249427,53.2258762 L138.249427,60.2044791 L136.616313,60.2044791 L136.616313,53.2258762 L138.249427,53.2258762 Z M104.50713,23.7174729 C104.50713,23.7174729 106.831178,23.9500571 108.587045,23.9500571 C110.342912,23.9500571 112.774278,23.7224979 112.774278,23.7224979 L112.774278,24.9130562 C112.249887,25.0085306 111.76103,25.2425505 111.358314,25.5910679 C110.573343,26.2138049 109.943068,26.9517573 109.207269,28.4696564 C108.864232,29.1778418 107.262328,32.6910198 105.570627,36.4037092 L105.025211,37.6007399 C103.267062,41.4593265 101.546952,45.2324751 101.163732,46.0254568 C100.370505,47.6661087 97.5532932,54.2617373 94.5989713,57.202779 C91.6446494,60.1441795 89.1637512,60.2044791 89.1637512,60.2044791 L87.3450719,56.7630943 C87.3450719,56.7630943 88.930808,56.9910125 91.1392812,55.912798 C93.3481133,54.8349425 94.8215056,53.0345685 95.6143736,51.7779677 C96.4068828,50.5224437 98.6670413,45.5728508 98.6670413,45.5728508 C98.6670413,45.5728508 96.9406175,41.517642 95.1337071,37.2770591 L94.5134982,35.8216578 C93.2250629,32.7985082 91.9915361,29.9064263 91.412749,28.5557017 L91.2867183,28.2618439 C91.1738727,27.9990243 91.1015042,27.8314855 91.0779048,27.7787234 C90.7232857,26.9801125 90.2024837,26.2665671 89.5503147,25.6854655 C89.1159691,25.3425115 88.6156708,25.09354 88.0821213,24.9532188 L87.8592495,24.9009449 L87.8597721,23.7224979 C87.8597721,23.7224979 90.1235199,23.9500571 92.6169806,23.9500571 C95.111159,23.9500571 97.8817107,23.7224979 97.8817107,23.7224979 L97.8817107,24.855628 C97.5016078,24.889726 97.1437583,25.0487303 96.8641548,25.308234 C96.4948197,25.8171914 96.4090363,26.4783336 96.6362366,27.0644601 C96.7462661,27.3928158 97.8849381,30.3606595 99.0334374,33.3429949 L99.2793236,33.9813319 C100.424029,36.9523447 101.505789,39.7503493 101.505789,39.7503493 L101.522176,39.7107533 C101.662446,39.3717405 102.680412,36.9101166 103.690399,34.4311546 L103.922928,33.859737 C104.849253,31.5805011 105.71073,29.4244799 105.81075,29.0475276 C106.035797,28.2001028 106.378572,27.1215294 105.923094,26.101461 C105.65713,25.4984649 105.139199,25.0429875 104.50713,24.855628 L104.50713,23.7174729 Z M163.597517,53.1476303 C165.269754,53.1476303 166.51128,54.1012973 166.51128,56.204964 L166.51128,60.2026845 L164.877807,60.2026845 L164.877807,56.4138591 C164.877807,55.1726921 164.264043,54.5714907 163.218491,54.5714907 C162.055928,54.5714907 161.272034,55.2771397 161.272034,56.6751574 L161.272034,60.2026845 L159.638919,60.2026845 L159.638919,53.2258762 L161.193429,53.2258762 L161.193429,54.1274989 C161.729306,53.4871745 162.578525,53.1476303 163.597517,53.1476303 Z M119.14163,53.1476303 L119.14163,54.7021398 C118.997701,54.6762971 118.880332,54.6630169 118.762604,54.6630169 C117.521796,54.6630169 116.737901,55.3948675 116.737901,56.8187279 L116.737901,60.2026845 L115.104428,60.2026845 L115.104428,53.2258762 L116.659296,53.2258762 L116.659296,54.2452267 C117.129489,53.5133761 117.979068,53.1476303 119.14163,53.1476303 Z M183.292518,53.1476303 C184.964755,53.1476303 186.205922,54.1012973 186.205922,56.204964 L186.205922,60.2026845 L184.572807,60.2026845 L184.572807,56.4138591 C184.572807,55.1726921 183.959044,54.5714907 182.913491,54.5714907 C181.750929,54.5714907 180.967034,55.2771397 180.967034,56.6751574 L180.967034,60.2026845 L179.33392,60.2026845 L179.33392,53.2258762 L180.888788,53.2258762 L180.888788,54.1274989 C181.424306,53.4871745 182.273526,53.1476303 183.292518,53.1476303 Z M169.614556,53.2258762 L169.614556,60.2026845 L167.981442,60.2026845 L167.981442,53.2258762 L169.614556,53.2258762 Z M131.461773,54.5323677 C130.28629,54.5323677 129.384308,55.3815872 129.384308,56.7142804 C129.384308,58.0466146 130.28629,58.896193 131.461773,58.896193 C132.637616,58.896193 133.538879,58.0466146 133.538879,56.7142804 C133.538879,55.3815872 132.637616,54.5323677 131.461773,54.5323677 Z M174.467598,54.5323677 C173.291756,54.5323677 172.403413,55.3815872 172.403413,56.7142804 C172.403413,58.0466146 173.291756,58.896193 174.467598,58.896193 C175.656362,58.896193 176.545063,58.0466146 176.545063,56.7142804 C176.545063,55.3815872 175.656362,54.5323677 174.467598,54.5323677 Z M123.330299,54.4541218 C122.272185,54.4541218 121.50157,55.1332102 121.34436,56.1525608 L125.303317,56.1525608 C125.172668,55.1464905 124.401694,54.4541218 123.330299,54.4541218 Z M168.797999,49.8814014 C169.375511,49.8814014 169.843192,50.3494413 169.843192,50.9265947 C169.843192,51.504107 169.375511,51.9717879 168.797999,51.9717879 C168.220846,51.9717879 167.752806,51.504107 167.752806,50.9265947 C167.752806,50.3494413 168.220846,49.8814014 168.797999,49.8814014 Z M137.43287,49.8814014 C138.010383,49.8814014 138.478422,50.3494413 138.478422,50.9265947 C138.478422,51.504107 138.010383,51.9717879 137.43287,51.9717879 C136.855717,51.9717879 136.387677,51.504107 136.387677,50.9265947 C136.387677,50.3494413 136.855717,49.8814014 137.43287,49.8814014 Z M126.035885,7.38094492 C132.663817,7.38094492 135.608089,9.99787616 135.608089,9.99787616 L136.029469,15.8907272 L134.346822,15.8907272 C134.346822,15.8907272 134.239145,14.9431619 133.399257,13.5749351 C132.55937,12.2059904 130.563022,9.57649675 126.140692,9.57649675 C121.718003,9.57649675 119.091021,12.6248573 119.091021,16.6261671 C119.091021,20.6271179 120.880628,21.9903198 123.089101,22.8330786 C125.297933,23.6754785 127.718532,24.6205313 129.717751,25.3577658 C131.71697,26.0957182 137.185929,28.6186108 137.185929,35.8775351 C137.185929,43.1364595 131.714457,48.5530154 124.507936,48.5530154 C117.300697,48.5530154 114.252337,46.185179 114.252337,46.185179 L114.252337,39.9911888 L116.251915,39.9911888 C116.251915,39.9911888 116.568488,41.7782826 117.620501,42.9351019 C118.672154,44.0919211 120.668861,46.0907814 124.350727,46.0907814 C128.032233,46.0907814 132.03103,43.7775017 132.03103,39.2532364 C132.03103,34.7289711 129.610432,32.520139 127.087539,31.6802516 C124.565364,30.8403642 120.77618,29.469266 118.776961,28.4172531 C116.777383,27.3652403 113.831316,24.6305813 113.831316,18.4236697 C113.831316,12.2167582 119.407594,7.38094492 126.035885,7.38094492 Z M190.26789,43.2322928 C191.566126,43.2322928 192.622446,44.2886127 192.622446,45.58649 C192.622446,46.8847262 191.566126,47.9410462 190.26789,47.9410462 C188.969654,47.9410462 187.913693,46.8847262 187.913693,45.58649 C187.913693,44.2886127 188.969654,43.2322928 190.26789,43.2322928 Z M188.843671,23.7095765 C191.347899,23.7095765 192.622446,24.9367454 192.622446,24.9367454 L192.622446,30.3848868 L191.543873,30.3848868 C191.543873,30.3848868 190.795871,28.4825777 188.250007,28.4825777 C185.703784,28.4825777 184.771653,31.4627423 184.586088,32.6403793 C184.400164,33.8180163 184.193781,43.0445744 184.193781,43.9293275 C184.193781,44.8140807 184.290332,45.8420455 184.87933,46.2846016 C185.272355,46.5581034 185.728909,46.7267987 186.205922,46.773818 L186.205922,47.9410462 C186.205922,47.9410462 184.240801,47.7443546 181.838507,47.7443546 C179.436214,47.7443546 177.353724,47.9410462 177.353724,47.9410462 L177.353724,46.812941 C177.784794,46.6916239 178.174947,46.4543737 178.481111,46.1273919 C178.873418,45.635304 178.973199,44.7509097 178.973199,43.9189187 L178.972279,43.7722196 C178.965609,43.0672889 178.923587,40.5758992 178.875442,37.9782566 L178.862181,37.2684366 C178.808708,34.4287181 178.75111,31.6443303 178.727335,31.0966376 C178.677444,29.955611 178.384201,29.1839196 177.74603,28.6918317 C177.292348,28.3781302 176.771546,28.1764136 176.225619,28.1028338 L176.225619,26.8756649 C177.480425,26.6459521 178.690006,26.2159585 179.807703,25.6014768 C181.867221,24.5207498 182.652193,23.7357781 182.652193,23.7357781 L182.669422,23.7174729 L183.791066,23.7174729 L183.791066,28.6656301 C183.791066,28.6656301 186.339083,23.7095765 188.843671,23.7095765 Z M68.6130702,7.42293929 L68.6130702,8.71040772 C68.6130702,8.71040772 67.4174868,8.71040772 66.9569845,9.53952735 C66.5280676,10.3984378 66.4620252,11.3926635 66.7739321,12.300388 L66.8032217,12.3878702 C67.4409932,14.1990098 76.6342479,37.3105875 77.3992452,39.233408 L77.4370125,39.328332 C77.4455022,39.3496688 77.4498343,39.3605554 77.4498343,39.3605554 C77.4498343,39.3605554 85.1875938,17.9919907 86.1946548,14.9999947 L86.2532606,14.8232675 C86.2691217,14.7743918 86.28125,14.7357105 86.2894698,14.7077063 C86.6638299,13.4335182 86.9333835,11.2092522 86.2894698,10.1048362 C85.6459151,9.00077906 83.8060591,8.81736775 83.8060591,8.81736775 L83.8060591,7.43298922 C83.8060591,7.43298922 86.3813549,7.71331062 89.0399216,7.71331062 C91.6981294,7.71331062 94.5637965,7.43550171 94.5637965,7.43550171 L94.5637965,8.72332907 C94.5637965,8.72332907 93.6424328,8.72332907 92.5383757,9.73586 C91.4339597,10.7487499 90.88229,11.852807 90.1443377,13.7867016 C90.1221883,13.8447184 90.0900208,13.9299857 90.048456,14.0408163 L89.896191,14.4483103 C88.0243944,19.4700957 77.5363355,47.9327909 77.5363355,47.9327909 L75.1419385,47.9327909 C75.1419385,47.9327909 71.6299187,39.6872615 68.0042066,31.1684241 L67.3377609,29.6024958 C63.7848839,21.2540024 60.3225631,13.1116188 60.1452822,12.6693642 C59.776665,11.7480005 59.2242775,10.5524172 58.3976703,9.90850353 C57.8761505,9.32560731 57.1518373,8.96345073 56.3722495,8.89597259 L56.3722495,7.42293929 C56.3722495,7.42293929 60.2371673,7.79155654 62.4485119,7.79155654 C63.0988018,7.79155654 63.8998345,7.75966924 64.7066844,7.71465186 L65.1903329,7.68621589 C66.7970922,7.58717767 68.3111794,7.45062497 68.573189,7.42661571 L68.6130702,7.42293929 L68.6130702,7.42293929 Z M162.822595,23.1597015 C166.92584,23.1597015 171.596188,24.4475289 171.596188,29.3615881 L171.595566,29.9826719 C171.59475,30.4009093 171.593151,30.8268309 171.590913,31.2563632 L171.587095,31.9028607 C171.584964,32.2269542 171.582513,32.5519332 171.579803,32.8760791 L171.574053,33.5227509 C171.540721,37.0677357 171.480797,40.373293 171.474057,41.1521233 L171.473435,41.265377 C171.473435,41.9401583 171.473435,43.168045 172.148576,43.5341498 C172.823716,43.9006134 174.241833,43.5969618 174.241833,43.5969618 L174.979786,44.4551545 L170.929303,47.888284 C170.045986,47.7561992 169.205739,47.4202442 168.474965,46.9069797 C167.762856,46.4242239 167.157347,45.8011279 166.69505,45.075379 C166.69505,45.075379 163.628384,47.8961804 160.744771,47.8961804 C157.861157,47.8961804 153.626905,46.0645798 153.626905,41.3310605 C153.626905,36.5968233 156.387765,35.0713868 158.166963,34.0900824 C159.946519,33.1087781 162.154992,32.9257257 164.05766,32.9257257 C165.960328,32.9257257 166.449545,33.0484785 166.449545,33.0484785 L166.449438,33.0144483 C166.448428,32.802286 166.43782,31.6302583 166.326433,30.4085759 C166.202962,29.0579365 165.713746,26.4833585 162.215292,26.4833585 C158.656179,26.4833585 157.185658,29.5500244 157.185658,29.5500244 L157.185658,29.5424869 L156.01843,29.5424869 L156.01843,24.1438773 C156.01843,24.1438773 158.71935,23.1597015 162.822595,23.1597015 Z M146.213642,15.9373876 L146.213642,23.7174729 L152.363125,23.7174729 L152.363125,26.4833585 L145.674535,26.4833585 L145.674535,38.8347284 C145.674535,39.4650029 145.831744,41.712958 147.506494,42.5661257 C148.627421,43.1314345 149.962268,43.0718527 151.028637,42.4092749 C151.400844,42.1806389 151.751874,41.9175459 152.075266,41.6239443 L152.860597,42.5162349 L147.446195,47.8782341 C145.7596,47.6661087 144.173864,46.9593829 142.887831,45.8474294 C140.681871,43.9555292 140.681871,41.9039068 140.629826,40.9071686 L140.629826,40.8938883 C140.614979,40.6106656 140.608545,39.3325599 140.606949,37.6460748 L140.607188,35.3959939 C140.607817,34.7171625 140.608865,34.0175434 140.610175,33.3229224 L140.611567,32.6309225 C140.616947,30.1067016 140.625145,27.7652344 140.628411,26.8776566 L140.629174,26.6725918 C140.629279,26.6447405 140.629372,26.6201318 140.629453,26.5988852 L140.629826,26.5016638 L140.629826,26.5016638 L138.012895,26.5016638 L138.012895,24.670781 C138.012895,24.670781 140.69551,24.2235589 142.429841,21.4041933 C144.629341,17.8289289 144.952734,15.9373876 144.952734,15.9373876 L146.213642,15.9373876 Z M190.26789,43.7240217 C189.239208,43.7240217 188.405422,44.5578074 188.405422,45.58649 C188.405422,46.6151726 189.239208,47.4493172 190.26789,47.4493172 C191.296573,47.4493172 192.130358,46.6151726 192.130358,45.58649 C192.130358,44.5578074 191.296573,43.7240217 190.26789,43.7240217 Z M190.408589,44.2875359 C190.434073,44.2875359 190.466376,44.2882538 190.506217,44.2900484 C190.545699,44.2918431 190.582668,44.2957912 190.616049,44.301893 C190.766439,44.3248643 190.890627,44.374755 190.988614,44.4515652 C191.08696,44.5287344 191.159463,44.6260034 191.2072,44.7430133 C191.254578,44.8600233 191.278268,44.9906724 191.278268,45.1335251 C191.278268,45.3452916 191.224788,45.5272672 191.117469,45.6794519 C191.048914,45.7770798 190.954157,45.8481472 190.838224,45.898038 L190.838224,45.898038 L191.319903,46.885803 L190.827097,46.885803 L190.387413,45.9780785 L189.770059,45.9780785 L189.770059,46.885803 L189.335041,46.885803 L189.335041,44.2875359 Z M190.428913,44.6958594 L189.770059,44.6952762 L189.770059,45.572133 L190.390643,45.572133 C190.414691,45.572133 190.44161,45.5710562 190.47176,45.5685437 C190.50191,45.5660312 190.529547,45.5613652 190.555031,45.5541867 C190.626816,45.5358814 190.683886,45.5042959 190.725162,45.4583533 C190.766798,45.4127697 190.79623,45.3610843 190.813817,45.3032972 C190.831045,45.2455101 190.83966,45.1891587 190.83966,45.1335251 C190.83966,45.0782505 190.831045,45.0215401 190.813817,44.9633941 C190.79623,44.9048891 190.766798,44.8528448 190.725162,44.8069022 C190.683886,44.7613186 190.626816,44.7293741 190.555031,44.7114278 C190.529547,44.7042493 190.50191,44.6999422 190.47176,44.6977886 C190.44161,44.695994 190.414691,44.6952762 190.390643,44.6952762 Z M163.746471,34.7573263 C162.210267,34.7573263 158.774266,35.4299541 158.774266,39.7894722 C158.774266,44.1489904 162.149967,44.452642 163.500248,44.452642 C164.738005,44.452642 166.345219,43.573183 166.604493,43.4266065 L166.63425,43.4089449 L166.449545,35.1184061 C165.569099,34.8736184 164.659579,34.7523013 163.746471,34.7573263 Z" id="path-1"></path>
        <path d="M26.5748529,-0.0956535088 C28.2930328,-0.0956535088 29.6860256,1.28512001 29.6860256,2.98822818 L29.6860256,2.98822818 L29.6860256,3.90434649 C42.8955881,5.43135412 53.1472395,16.5615058 53.1472395,30.065051 C53.1472395,44.6117366 41.2502702,56.4043465 26.5748529,56.4043465 C11.8990766,56.4043465 0.00210736617,44.6117366 0.00210736617,30.065051 C0.00210736617,16.5615058 10.2537587,5.43135412 23.4633213,3.90434649 L23.4633213,3.90434649 L23.4633213,2.98822818 C23.4633213,1.28512001 24.856314,-0.0956535088 26.5748529,-0.0956535088 Z M26.9721843,6.87403297 L26.9169096,7.73252472 L27.3149588,7.73252472 C27.4667846,7.73252472 27.5898963,7.85455649 27.5898963,8.00505049 L27.5898963,8.00505049 L27.5898963,11.2476091 C28.4240409,12.6507966 28.7463567,14.8744076 28.5317188,15.4696238 C28.316722,16.06484 27.5016005,16.1459574 27.5016005,16.1459574 L27.5016005,16.1459574 L27.5432661,16.1880566 C27.7298719,16.3854292 28.4873465,17.2831565 28.6641626,19.0149493 C28.866597,20.9944968 28.0787539,21.4957877 28.0787539,21.4957877 C28.0787539,21.4957877 28.9760695,22.0885134 28.9760695,23.3081196 C28.9760695,24.2975376 28.4351676,24.8991578 28.1351053,25.1567409 C29.7125861,25.6491373 30.9648798,26.8676762 31.4932192,28.4170884 C31.946902,28.374033 33.8362897,28.2598346 35.0160803,29.1880588 C35.0160803,29.1880588 35.1467295,28.6035159 36.0375844,28.6035159 C36.9287983,28.6035159 38.0787979,29.1610197 38.0787979,29.1610197 L38.0787979,29.1610197 L41.7778918,29.1610197 C41.9297176,29.1610197 42.0528293,29.2826957 42.0528293,29.4331897 L42.0528293,29.4331897 L42.0528293,30.6965565 C42.0528293,30.8470505 41.9297176,30.9690823 41.7778918,30.9690823 L41.7778918,30.9690823 L38.0787979,30.9690823 C38.0787979,30.9690823 36.9287983,31.5265861 36.0375844,31.5265861 C35.1467295,31.5265861 35.0160803,30.9420432 35.0160803,30.9420432 C33.8359308,31.8702674 31.9458252,31.7557069 31.4928603,31.7126578 C30.9760065,33.2282711 29.7671429,34.4272422 28.238476,34.939918 C28.2829829,35.413814 28.3859947,37.2599448 27.4592472,38.4172899 C27.4592472,38.4172899 28.0493219,38.5464372 28.0493219,39.4298334 C28.0493219,40.3128738 27.4868845,41.4531416 27.4868845,41.4531416 L27.4868845,41.4531416 L27.4868845,44.3178642 C27.4868845,44.4683582 27.3637728,44.5903899 27.211947,44.5903899 L27.211947,44.5903899 L25.9373999,44.5903899 C25.7855741,44.5903899 25.6624624,44.4683582 25.6624624,44.3178642 L25.6624624,44.3178642 L25.6624624,41.4531416 C25.6624624,41.4531416 25.100025,40.3128738 25.100025,39.4298334 C25.100025,38.5464372 25.6900997,38.4172899 25.6900997,38.4172899 C24.7633521,37.2599448 24.866364,35.413814 24.9108708,34.939918 C23.382204,34.4272422 22.1733404,33.2282711 21.6568455,31.7126578 C21.2038806,31.7557069 19.3134161,31.8702674 18.1332666,30.9420432 C18.1332666,30.9420432 18.0026174,31.5265861 17.1117625,31.5265861 C16.2205486,31.5265861 15.0705489,30.9690823 15.0705489,30.9690823 L15.0705489,30.9690823 L12.80716,30.9690823 C12.6553342,30.9690823 12.5322225,30.8470505 12.5322225,30.6965565 L12.5322225,30.6965565 L12.5322225,29.4331897 C12.5322225,29.2826957 12.6553342,29.1610197 12.80716,29.1610197 L12.80716,29.1610197 L15.0705489,29.1610197 C15.0705489,29.1610197 16.2205486,28.6035159 17.1117625,28.6035159 C18.0026174,28.6035159 18.1332666,29.1880588 18.1332666,29.1880588 C19.3130571,28.2598346 21.2024449,28.374033 21.6561277,28.4170884 C22.1844671,26.8676762 23.4367608,25.6491373 25.0142416,25.1567409 C24.7141793,24.8991578 24.1732774,24.2975376 24.1732774,23.3081196 C24.1732774,22.0885134 25.070593,21.4957877 25.070593,21.4957877 C25.070593,21.4957877 24.2827499,20.9944968 24.4851843,19.0149493 C24.6620003,17.2831565 25.4194749,16.3854292 25.6060808,16.1880566 L25.6477464,16.1459574 C25.6477464,16.1459574 24.8326249,16.06484 24.6176281,15.4696238 C24.4029902,14.8744076 24.725306,12.6507966 25.5594506,11.2476091 L25.5594506,11.2476091 L25.5594506,8.00505049 C25.5594506,7.85455649 25.6825623,7.73252472 25.8343881,7.73252472 L25.8343881,7.73252472 L26.2324373,7.73252472 L26.1771626,6.87403297 C25.6211859,6.88328319 25.0702341,6.91138963 24.5243073,6.9583523 L24.5243073,6.9583523 L24.584248,8.4049447 C24.5903497,8.48997559 24.5271787,8.56433314 24.4417542,8.57322759 L24.4417542,8.57322759 L24.1531775,8.60311292 C24.0673942,8.61236314 23.990225,8.5522367 23.9783805,8.46791737 L23.9783805,8.46791737 L23.7335928,7.04018118 C23.182282,7.10635585 22.6370731,7.19103096 22.0986837,7.29456229 L22.0986837,7.29456229 L22.311168,8.7297698 C22.326243,8.81373336 22.2713272,8.89413913 22.1869796,8.91192802 L22.1869796,8.91192802 L21.9030689,8.97169869 C21.8190802,8.98948757 21.7358093,8.9378998 21.7149916,8.85535936 L21.7149916,8.85535936 L21.3201727,7.45786428 C20.7799887,7.58060761 20.2466243,7.72220716 19.7215152,7.8815956 L19.7215152,7.8815956 L20.0847486,9.2883409 C20.1084377,9.37016979 20.0621362,9.45591223 19.9806599,9.48259556 L19.9806599,9.48259556 L19.7042867,9.57154 C19.6224516,9.59786756 19.5345146,9.55517423 19.5050827,9.47512423 L19.5050827,9.47512423 L18.9645398,8.12530338 C18.4408664,8.30354804 17.9258072,8.49958159 17.4197212,8.71304825 L17.4197212,8.71304825 L17.9290375,10.0746098 C17.9613409,10.1535924 17.9247304,10.2436042 17.8461256,10.2784704 L17.8461256,10.2784704 L17.5808791,10.3955213 C17.5022742,10.4300318 17.4100302,10.3969444 17.3723429,10.3200964 L17.3723429,10.3200964 L16.6928956,9.03431557 C16.311357,9.21042557 15.9359201,9.39685312 15.5662261,9.59288667 L15.5662261,9.59288667 L20.6112934,19.5094804 C20.6529288,19.5852611 20.6260093,19.6798979 20.5509938,19.7229471 C20.4756192,19.7659962 20.379427,19.7414475 20.3345612,19.6678015 L20.3345612,19.6678015 L14.1936921,10.3802229 C13.8369194,10.6011609 13.4869663,10.8309933 13.1434739,11.070076 L13.1434739,11.070076 L13.9252153,12.2932399 C13.9733114,12.3636839 13.9560829,12.4593881 13.8868102,12.5095528 L13.8868102,12.5095528 L13.6517135,12.678903 C13.5820818,12.7290677 13.4848128,12.7155481 13.4320506,12.6483061 L13.4320506,12.6483061 L12.5002781,11.5336544 C12.0595167,11.8634604 11.6305998,12.2078533 11.2149632,12.566833 L11.2149632,12.566833 L12.1201752,13.7010526 C12.1754499,13.7665157 12.1686303,13.8632872 12.1047414,13.9205674 L12.1047414,13.9205674 L11.8890267,14.1130432 C11.8251378,14.1699677 11.727151,14.1667657 11.6675692,14.1052161 L11.6675692,14.1052161 L10.6241706,13.0940957 C10.2203786,13.4673066 9.83022577,13.854037 9.45371214,14.254287 L9.45371214,14.254287 L10.4737805,15.288533 C10.5358748,15.3475921 10.5391051,15.4447194 10.4816769,15.5080478 L10.4816769,15.5080478 L10.2871389,15.7218703 C10.2297107,15.7855545 10.1320827,15.7919585 10.0660403,15.7371687 L10.0660403,15.7371687 L8.92178345,14.8398972 C8.55962687,15.2518878 8.21182734,15.6770423 7.87946164,16.1142932 L7.87946164,16.1142932 L9.00361863,17.0375365 C9.07145569,17.0901916 9.08509489,17.1862516 9.03484522,17.2552725 L9.03484522,17.2552725 L8.86399633,17.4883069 C8.81338773,17.556972 8.71683657,17.5740493 8.64576917,17.5263751 L8.64576917,17.5263751 L7.41178074,16.7514911 C7.17058231,17.0919705 6.93871595,17.4388538 6.71582276,17.7924969 L6.71582276,17.7924969 L16.0855924,23.8794987 C16.1598901,23.9239709 16.184656,24.0193194 16.1412259,24.0940327 C16.0977958,24.168746 16.0023215,24.1950736 15.9258702,24.1538034 L15.9258702,24.1538034 L5.92151898,19.1529911 C5.72375062,19.5194422 5.53567327,19.8915857 5.35800478,20.2697775 L5.35800478,20.2697775 L6.65516422,20.9432648 C6.73269229,20.9806215 6.76607243,21.0720564 6.73125659,21.1499717 L6.73125659,21.1499717 L6.61316985,21.4128915 C6.57799508,21.4908068 6.48718674,21.5270961 6.40750511,21.4954319 L6.40750511,21.4954319 L5.03389438,20.9902275 C4.81853863,21.4918741 4.62077027,22.0024152 4.4405893,22.521495 L4.4405893,22.521495 L5.80235547,23.0572963 C5.8834728,23.0864701 5.92618502,23.1736356 5.89962448,23.254753 L5.89962448,23.254753 L5.80989292,23.5287018 C5.78333238,23.6098192 5.69683115,23.6553587 5.61427811,23.6318774 L5.61427811,23.6318774 L4.19508375,23.2718303 C4.03428479,23.7926889 3.89143214,24.3210189 3.76724366,24.8564645 L3.76724366,24.8564645 L5.17746488,25.24782 C5.26073576,25.2684551 5.31278007,25.3509956 5.29483376,25.4342476 L5.29483376,25.4342476 L5.23453415,25.7160236 C5.21658784,25.7992756 5.13511158,25.8537096 5.05076391,25.8387669 L5.05076391,25.8387669 L3.60285544,25.6281464 C3.49840791,26.1618131 3.41298346,26.7022395 3.34622318,27.2487142 L3.34622318,27.2487142 L4.7865942,27.4913546 C4.87165972,27.5030953 4.93195932,27.5795875 4.92298617,27.6646184 L4.92298617,27.6646184 L4.89283636,27.9506637 C4.88386321,28.0356946 4.8084887,28.0979557 4.72270532,28.0919075 L4.72270532,28.0919075 L3.26367014,28.0324926 C3.21629188,28.5736306 3.18793671,29.1201052 3.17860462,29.6708492 L3.17860462,29.6708492 L4.63440947,29.7629957 C4.72055177,29.7658419 4.78874775,29.8359301 4.78874775,29.920961 L4.78874775,29.920961 L4.78874775,30.2087852 C4.78874775,30.2941719 4.72055177,30.3639043 4.63440947,30.3671063 L4.63440947,30.3671063 L3.17860462,30.458897 C3.18793671,31.0099967 3.21629188,31.5561156 3.26367014,32.0972536 L3.26367014,32.0972536 L4.72270532,32.0378387 C4.8084887,32.0317905 4.88386321,32.0944074 4.89283636,32.1790825 L4.89283636,32.1790825 L4.92298617,32.4654836 C4.93195932,32.5501587 4.87165972,32.6266509 4.7865942,32.6383916 L4.7865942,32.6383916 L3.34622318,32.8813878 C3.41298346,33.4275067 3.49840791,33.9679331 3.60285544,34.5019555 L3.60285544,34.5019555 L5.05076391,34.2913351 C5.13511158,34.2763924 5.21658784,34.3304707 5.23453415,34.4140784 L5.23453415,34.4140784 L5.29483376,34.6954986 C5.31278007,34.7791064 5.26073576,34.8612911 5.17746488,34.8819262 L5.17746488,34.8819262 L3.76724366,35.2732817 C3.89143214,35.8090831 4.03428479,36.337413 4.19508375,36.8582717 L4.19508375,36.8582717 L5.61427811,36.4982246 C5.69683115,36.4747433 5.78333238,36.5202828 5.80989292,36.6014001 L5.80989292,36.6014001 L5.89962448,36.8749933 C5.92618502,36.9561106 5.8834728,37.0436319 5.80235547,37.0724499 L5.80235547,37.0724499 L4.4405893,37.6082512 C4.62077027,38.127331 4.81853863,38.6382279 5.03389438,39.1395187 L5.03389438,39.1395187 L6.40750511,38.6346701 C6.48718674,38.6026501 6.57799508,38.6389394 6.61316985,38.7168548 L6.61316985,38.7168548 L6.73125659,38.9801303 C6.76607243,39.0576899 6.73269229,39.1491247 6.65516422,39.1864814 L6.65516422,39.1864814 L5.35800478,39.8603245 C5.53567327,40.2381605 5.72375062,40.610304 5.92151898,40.9771109 L5.92151898,40.9771109 L15.9258702,35.9762986 C16.0023215,35.9346726 16.0977958,35.9613559 16.1412259,36.0360693 C16.184656,36.1104268 16.1598901,36.2057753 16.0855924,36.2506033 L16.0855924,36.2506033 L6.71582276,42.3376051 C6.93871595,42.6908924 7.17058231,43.0381315 7.41178074,43.3786108 L7.41178074,43.3786108 L8.64576917,42.6037269 C8.71683657,42.5560527 8.81338773,42.5727742 8.86399633,42.6417951 L8.86399633,42.6417951 L9.03484522,42.8748295 C9.08509489,42.9434946 9.07145569,43.0399104 9.00361863,43.0922097 L9.00361863,43.0922097 L7.87946164,44.0158088 C8.21182734,44.4527039 8.55962687,44.8778584 8.92178345,45.2902048 L8.92178345,45.2902048 L10.0660403,44.3925775 C10.1320827,44.3377877 10.2297107,44.3445475 10.2871389,44.4078759 L10.2871389,44.4078759 L10.4816769,44.6216984 C10.5391051,44.6850268 10.5358748,44.7821541 10.4737805,44.841569 L10.4737805,44.841569 L9.45371214,45.875815 C9.83022577,46.2757092 10.2203786,46.6627954 10.6241706,47.0356505 L10.6241706,47.0356505 L11.6675692,46.0245301 C11.727151,45.9633363 11.8251378,45.9597786 11.8890267,46.016703 L11.8890267,46.016703 L12.1047414,46.2095345 C12.1686303,46.266459 12.1754499,46.3635863 12.1201752,46.4286937 L12.1201752,46.4286937 L11.2149632,47.5629132 C11.6305998,47.9218929 12.0595167,48.2666416 12.5002781,48.5960918 L12.5002781,48.5960918 L13.4320506,47.4817958 C13.4848128,47.4145538 13.5820818,47.4010343 13.6517135,47.451199 L13.6517135,47.451199 L13.8868102,47.6201934 C13.9560829,47.6703581 13.9733114,47.7660623 13.9252153,47.8368621 L13.9252153,47.8368621 L13.1434739,49.060026 C13.4869663,49.2991087 13.8369194,49.5289411 14.1936921,49.7498791 L14.1936921,49.7498791 L20.3345612,40.4619447 C20.379427,40.3882987 20.4756192,40.36375 20.5509938,40.4067992 C20.6260093,40.4498483 20.6529288,40.5448409 20.6112934,40.6202658 L20.6112934,40.6202658 L15.5662261,50.5372153 C15.9359201,50.7328931 16.311357,50.9193206 16.6928956,51.0957864 L16.6928956,51.0957864 L17.3723429,49.8096498 C17.4100302,49.7331576 17.5022742,49.6997145 17.5808791,49.7345807 L17.5808791,49.7345807 L17.8461256,49.8516316 C17.9247304,49.886142 17.9613409,49.9765096 17.9290375,50.0554922 L17.9290375,50.0554922 L17.4197212,51.416698 C17.9258072,51.6301646 18.4408664,51.826554 18.9645398,52.0047986 L18.9645398,52.0047986 L19.5050827,50.6549778 C19.5345146,50.5749278 19.6224516,50.5322344 19.7042867,50.558562 L19.7042867,50.558562 L19.9806599,50.6475064 C20.0621362,50.673834 20.1084377,50.7595764 20.0847486,50.8417611 L20.0847486,50.8417611 L19.7215152,52.2485064 C20.2466243,52.407539 20.7799887,52.5491386 21.3201727,52.6722377 L21.3201727,52.6722377 L21.7149916,51.2747426 C21.7358093,51.1918464 21.8190802,51.1402586 21.9030689,51.1580475 L21.9030689,51.1580475 L22.1869796,51.218174 C22.2713272,51.2356071 22.326243,51.3163686 22.311168,51.4003322 L22.311168,51.4003322 L22.0986837,52.8351839 C22.6370731,52.9387153 23.182282,53.0237461 23.7335928,53.0899208 L23.7335928,53.0899208 L23.9783805,51.6618288 C23.990225,51.5775095 24.0673942,51.5177388 24.1531775,51.5266333 L24.1531775,51.5266333 L24.4417542,51.5568744 C24.5271787,51.5657688 24.5903497,51.6401264 24.584248,51.7251573 L24.584248,51.7251573 L24.5243073,53.1713939 C25.0702341,53.2183566 25.6211859,53.246463 26.1771626,53.2557132 L26.1771626,53.2557132 L26.2701245,51.8126786 C26.2729959,51.7276477 26.3433455,51.66005 26.4294878,51.66005 L26.4294878,51.66005 L26.7198591,51.66005 C26.8060014,51.66005 26.8763509,51.7276477 26.8792224,51.8126786 L26.8792224,51.8126786 L26.9721843,53.2557132 C27.528161,53.246463 28.0791128,53.2183566 28.6250396,53.1713939 L28.6250396,53.1713939 L28.5650989,51.7251573 C28.5589972,51.6401264 28.6221682,51.5657688 28.7075926,51.5568744 L28.7075926,51.5568744 L28.9965283,51.5266333 C29.0819527,51.5177388 29.1591219,51.5775095 29.1709664,51.6618288 L29.1709664,51.6618288 L29.416113,53.0899208 C29.9670648,53.0237461 30.5122738,52.9387153 31.0510221,52.8351839 L31.0510221,52.8351839 L30.8381788,51.4003322 C30.8234628,51.3163686 30.8780196,51.2356071 30.9623673,51.218174 L30.9623673,51.218174 L31.246278,51.1580475 C31.3306256,51.1402586 31.4135376,51.1918464 31.4343553,51.2747426 L31.4343553,51.2747426 L31.8291742,52.6722377 C32.3697171,52.5491386 32.9027226,52.407539 33.4278317,52.2485064 L33.4278317,52.2485064 L33.0649572,50.8417611 C33.0409092,50.7595764 33.0872107,50.673834 33.1690459,50.6475064 L33.1690459,50.6475064 L33.4450601,50.558562 C33.5268953,50.5322344 33.6148322,50.5749278 33.6442642,50.6549778 L33.6442642,50.6549778 L34.1848071,52.0047986 C34.7084805,51.826554 35.2235397,51.6301646 35.7296257,51.416698 L35.7296257,51.416698 L35.2203093,50.0554922 C35.188006,49.9765096 35.2246164,49.886142 35.3032213,49.8516316 L35.3032213,49.8516316 L35.5684678,49.7345807 C35.6470726,49.6997145 35.7393167,49.7331576 35.7770039,49.8096498 L35.7770039,49.8096498 L36.4564513,51.0957864 C36.8379899,50.9193206 37.2134268,50.7328931 37.5831208,50.5372153 L37.5831208,50.5372153 L32.5384124,40.6202658 C32.4964181,40.5448409 32.5233375,40.4498483 32.5983531,40.4067992 C32.6737276,40.36375 32.7699199,40.3882987 32.8147856,40.4619447 L32.8147856,40.4619447 L38.9556548,49.7498791 C39.3124274,49.5289411 39.6627395,49.2991087 40.0058729,49.060026 L40.0058729,49.060026 L39.2244905,47.8368621 C39.1760355,47.7660623 39.1932639,47.6703581 39.2628956,47.6201934 L39.2628956,47.6201934 L39.4976334,47.451199 C39.5672651,47.4010343 39.6645341,47.4145538 39.7172962,47.4817958 L39.7172962,47.4817958 L40.6490688,48.5960918 C41.0898302,48.2666416 41.5187471,47.9218929 41.9347426,47.5629132 L41.9347426,47.5629132 L41.0291717,46.4286937 C40.973897,46.3635863 40.9807166,46.266459 41.0446055,46.2095345 L41.0446055,46.2095345 L41.2603202,46.016703 C41.324209,45.9597786 41.4221959,45.9633363 41.4821366,46.0245301 L41.4821366,46.0245301 L42.5255352,47.0356505 C42.9289683,46.6627954 43.31948,46.2757092 43.6956347,45.875815 L43.6956347,45.875815 L42.6755663,44.841569 C42.613831,44.7821541 42.6102418,44.6850268 42.66767,44.6216984 L42.66767,44.6216984 L42.862208,44.4078759 C42.9196362,44.3445475 43.0176231,44.3377877 43.0833066,44.3925775 L43.0833066,44.3925775 L44.2275634,45.2902048 C44.58972,44.8778584 44.9375195,44.4527039 45.2698852,44.0158088 L45.2698852,44.0158088 L44.1457282,43.0922097 C44.0778912,43.0399104 44.064252,42.9434946 44.1148606,42.8748295 L44.1148606,42.8748295 L44.2853505,42.6417951 C44.3359591,42.5727742 44.4325103,42.5560527 44.5039366,42.6037269 L44.5039366,42.6037269 L45.7379251,43.3786108 C45.9787646,43.0381315 46.2109898,42.6908924 46.4335241,42.3376051 L46.4335241,42.3376051 L37.0637545,36.2506033 C36.9894568,36.2057753 36.9646909,36.1104268 37.008121,36.0360693 C37.051551,35.9613559 37.1473843,35.9346726 37.2234767,35.9762986 L37.2234767,35.9762986 L47.2281868,40.9771109 C47.4255963,40.610304 47.6136736,40.2381605 47.791701,39.8603245 L47.791701,39.8603245 L46.4941827,39.1864814 C46.4170135,39.1491247 46.3832744,39.0576899 46.4180903,38.9801303 L46.4180903,38.9801303 L46.5365359,38.7168548 C46.5713518,38.6389394 46.6621601,38.6026501 46.7418418,38.6346701 L46.7418418,38.6346701 L48.1154525,39.1395187 C48.3308082,38.6382279 48.5285766,38.127331 48.7087576,37.6082512 L48.7087576,37.6082512 L47.3469914,37.0724499 C47.266233,37.0436319 47.2231619,36.9561106 47.2497224,36.8749933 L47.2497224,36.8749933 L47.339454,36.6014001 C47.3660145,36.5202828 47.4525157,36.4747433 47.5350688,36.4982246 L47.5350688,36.4982246 L48.9546221,36.8582717 C49.1150621,36.337413 49.2579147,35.8090831 49.3821032,35.2732817 L49.3821032,35.2732817 L47.9722409,34.8819262 C47.8886111,34.8612911 47.8365668,34.7791064 47.8545131,34.6954986 L47.8545131,34.6954986 L47.9148127,34.4140784 C47.932759,34.3304707 48.0142353,34.2763924 48.0989419,34.2913351 L48.0989419,34.2913351 L49.5464914,34.5019555 C49.650939,33.9679331 49.7367223,33.4275067 49.8031237,32.8813878 L49.8031237,32.8813878 L48.3627527,32.6383916 C48.2776872,32.6266509 48.2173875,32.5501587 48.2263607,32.4654836 L48.2263607,32.4654836 L48.2565105,32.1790825 C48.2654837,32.0944074 48.3408582,32.0317905 48.4266415,32.0378387 L48.4266415,32.0378387 L49.8856767,32.0972536 C49.933055,31.5561156 49.9614102,31.0099967 49.9707423,30.458897 L49.9707423,30.458897 L48.5149374,30.3671063 C48.4287951,30.3639043 48.360958,30.2941719 48.360958,30.2087852 L48.360958,30.2087852 L48.360958,29.920961 C48.360958,29.8359301 48.4287951,29.7658419 48.5149374,29.7629957 L48.5149374,29.7629957 L49.9707423,29.6708492 C49.9614102,29.1201052 49.933055,28.5736306 49.8856767,28.0324926 L49.8856767,28.0324926 L48.4266415,28.0919075 C48.3408582,28.0979557 48.2654837,28.0356946 48.2565105,27.9506637 L48.2565105,27.9506637 L48.2263607,27.6646184 C48.2173875,27.5795875 48.2776872,27.5030953 48.3627527,27.4913546 L48.3627527,27.4913546 L49.8031237,27.2487142 C49.7367223,26.7022395 49.650939,26.1618131 49.5464914,25.6281464 L49.5464914,25.6281464 L48.0989419,25.8387669 C48.0142353,25.8537096 47.932759,25.7992756 47.9148127,25.7160236 L47.9148127,25.7160236 L47.8545131,25.4342476 C47.8365668,25.3509956 47.8886111,25.2684551 47.9722409,25.24782 L47.9722409,25.24782 L49.3821032,24.8564645 C49.2579147,24.3210189 49.1150621,23.7926889 48.9546221,23.2718303 L48.9546221,23.2718303 L47.5350688,23.6318774 C47.4525157,23.6553587 47.3660145,23.6098192 47.339454,23.5287018 L47.339454,23.5287018 L47.2497224,23.254753 C47.2231619,23.1736356 47.266233,23.0864701 47.3469914,23.0572963 L47.3469914,23.0572963 L48.7087576,22.521495 C48.5285766,22.0024152 48.3308082,21.4918741 48.1154525,20.9902275 L48.1154525,20.9902275 L46.7418418,21.4954319 C46.6621601,21.5270961 46.5713518,21.4908068 46.5365359,21.4128915 L46.5365359,21.4128915 L46.4180903,21.1499717 C46.3832744,21.0720564 46.4170135,20.9806215 46.4941827,20.9432648 L46.4941827,20.9432648 L47.791701,20.2697775 C47.6136736,19.8915857 47.4255963,19.5194422 47.2281868,19.1529911 L47.2281868,19.1529911 L37.2234767,24.1538034 C37.1473843,24.1950736 37.051551,24.168746 37.008121,24.0940327 C36.9646909,24.0193194 36.9894568,23.9239709 37.0637545,23.8794987 L37.0637545,23.8794987 L46.4335241,17.7924969 C46.2109898,17.4388538 45.9787646,17.0919705 45.7379251,16.7514911 L45.7379251,16.7514911 L44.5039366,17.5263751 C44.4325103,17.5740493 44.3359591,17.556972 44.2853505,17.4883069 L44.2853505,17.4883069 L44.1148606,17.2552725 C44.064252,17.1862516 44.0778912,17.0901916 44.1457282,17.0375365 L44.1457282,17.0375365 L45.2698852,16.1142932 C44.9375195,15.6770423 44.58972,15.2518878 44.2275634,14.8398972 L44.2275634,14.8398972 L43.0833066,15.7371687 C43.0176231,15.7919585 42.9196362,15.7855545 42.862208,15.7218703 L42.862208,15.7218703 L42.66767,15.5080478 C42.6102418,15.4447194 42.613831,15.3475921 42.6755663,15.288533 L42.6755663,15.288533 L43.6956347,14.254287 C43.31948,13.854037 42.9289683,13.4673066 42.5255352,13.0940957 L42.5255352,13.0940957 L41.4821366,14.1052161 C41.4221959,14.1667657 41.324209,14.1699677 41.2603202,14.1130432 L41.2603202,14.1130432 L41.0446055,13.9205674 C40.9807166,13.8632872 40.973897,13.7665157 41.0291717,13.7010526 L41.0291717,13.7010526 L41.9347426,12.566833 C41.5187471,12.2078533 41.0898302,11.8634604 40.6490688,11.5336544 L40.6490688,11.5336544 L39.7172962,12.6483061 C39.6645341,12.7155481 39.5672651,12.7290677 39.4976334,12.678903 L39.4976334,12.678903 L39.2628956,12.5095528 C39.1932639,12.4593881 39.1760355,12.3636839 39.2244905,12.2932399 L39.2244905,12.2932399 L40.0058729,11.070076 C39.6627395,10.8309933 39.3124274,10.6011609 38.9556548,10.3802229 L38.9556548,10.3802229 L32.8147856,19.6678015 C32.7699199,19.7414475 32.6737276,19.7659962 32.5983531,19.7229471 C32.5233375,19.6798979 32.4964181,19.5852611 32.5384124,19.5094804 L32.5384124,19.5094804 L37.5831208,9.59288667 C37.2134268,9.39685312 36.8379899,9.21042557 36.4564513,9.03431557 L36.4564513,9.03431557 L35.7770039,10.3200964 C35.7393167,10.3969444 35.6470726,10.4300318 35.5684678,10.3955213 L35.5684678,10.3955213 L35.3032213,10.2784704 C35.2246164,10.2436042 35.188006,10.1535924 35.2203093,10.0746098 L35.2203093,10.0746098 L35.7296257,8.71304825 C35.2235397,8.49958159 34.7084805,8.30354804 34.1848071,8.12530338 L34.1848071,8.12530338 L33.6442642,9.47512423 C33.6148322,9.55517423 33.5268953,9.59786756 33.4450601,9.57154 L33.4450601,9.57154 L33.1690459,9.48259556 C33.0872107,9.45591223 33.0409092,9.37016979 33.0649572,9.2883409 L33.0649572,9.2883409 L33.4278317,7.8815956 C32.9027226,7.72220716 32.3697171,7.58060761 31.8291742,7.45786428 L31.8291742,7.45786428 L31.4343553,8.85535936 C31.4135376,8.9378998 31.3306256,8.98948757 31.246278,8.97169869 L31.246278,8.97169869 L30.9623673,8.91192802 C30.8780196,8.89413913 30.8234628,8.81373336 30.8381788,8.7297698 L30.8381788,8.7297698 L31.0510221,7.29456229 C30.5122738,7.19103096 29.9670648,7.10635585 29.416113,7.04018118 L29.416113,7.04018118 L29.1709664,8.46791737 C29.1591219,8.5522367 29.0819527,8.61236314 28.9965283,8.60311292 L28.9965283,8.60311292 L28.7075926,8.57322759 C28.6221682,8.56433314 28.5589972,8.48997559 28.5650989,8.4049447 L28.5650989,8.4049447 L28.6250396,6.9583523 C28.0791128,6.91138963 27.528161,6.88328319 26.9721843,6.87403297 L26.9721843,6.87403297 Z M26.564803,45.5737597 C27.07053,45.5737597 27.5694375,45.6698197 28.0263506,45.8619397 L28.0263506,47.0772765 L27.202256,47.0772765 L27.202256,46.8438863 C27.202256,46.637891 27.202256,46.1985054 26.5859796,46.1985054 C26.0177994,46.1985054 25.941707,46.5966208 25.941707,46.7545861 C25.941707,47.1736923 26.4194378,47.4067267 27.0497123,47.7091378 C27.888164,48.1072532 28.2273493,48.5192438 28.2273493,49.1713845 C28.2273493,49.8032458 27.8605267,50.2426313 27.5278021,50.4005967 C27.07053,50.6272271 26.4747125,50.6272271 26.3365259,50.6272271 C25.6574374,50.6272271 25.2005243,50.4692618 24.8749782,50.3458069 L24.8749782,48.9792645 L25.7338887,48.9792645 L25.7338887,49.2261742 C25.7338887,49.3912551 25.7338887,49.9540956 26.4402556,49.9540956 C26.8835295,49.9540956 27.1609795,49.7139456 27.1609795,49.3293498 C27.1609795,48.9038396 26.8975276,48.7593938 26.2324373,48.4025487 C25.6093413,48.0727427 24.9094351,47.6678676 24.9094351,46.8712812 C24.9094351,46.589861 25.0479807,45.5737597 26.564803,45.5737597 Z M26.5748529,26.7993669 C24.7550968,26.7993669 23.2802689,28.2612577 23.2802689,30.065051 C23.2802689,31.8684885 24.7550968,33.3307351 26.5748529,33.3307351 C28.39425,33.3307351 29.8694369,31.8684885 29.8694369,30.065051 C29.8694369,28.2612577 28.39425,26.7993669 26.5748529,26.7993669 Z M7.71650912,27.6585702 L7.71650912,28.2694406 L7.48105351,28.2694406 C7.42577887,28.2694406 7.25959602,28.2694406 7.25959602,28.4274059 C7.25959602,28.4686761 7.28005481,28.5853713 7.28723334,28.6127661 L7.83423693,30.9815345 L7.84787613,30.9815345 L8.65869051,27.6585702 L9.67660534,27.6585702 L10.4321451,30.9815345 L10.4457843,30.9815345 L11.0207841,28.7017106 C11.0412429,28.6330455 11.0624196,28.5373413 11.0624196,28.4476853 C11.0624196,28.2897199 10.9443328,28.2694406 10.7505127,28.2694406 L10.6327849,28.2694406 L10.6327849,27.6585702 L12.4335178,27.6585702 L12.4335178,28.2694406 C12.1427876,28.262325 12.0182402,28.3178264 11.8933338,28.7500964 L10.8337836,32.4715318 L9.81515087,32.4715318 L9.06750751,29.3200523 L9.05350938,29.3200523 L8.27069124,32.4715318 L7.23841937,32.4715318 L6.26860066,28.832281 C6.13723365,28.3381057 5.9710508,28.2694406 5.79768942,28.2694406 L5.70077934,28.2694406 L5.70077934,27.6585702 L7.71650912,27.6585702 Z M46.920587,27.6824073 L46.920587,28.9318988 L46.1309493,28.9318988 L46.1309493,28.691393 C46.1309493,28.4444833 46.0272196,28.4238482 45.7914051,28.4238482 L44.7594921,28.4238482 L44.7594921,29.6256655 L45.5491299,29.6256655 C45.6596791,29.6256655 45.6876754,29.6117901 45.6876754,29.4741041 L45.6876754,29.261349 L46.4428562,29.261349 L46.4428562,30.7719814 L45.6876754,30.7719814 L45.6876754,30.5247159 C45.6876754,30.4357714 45.6668577,30.3738661 45.5491299,30.3738661 L44.7594921,30.3738661 L44.7594921,31.7126578 L45.8814956,31.7126578 C46.1998631,31.7126578 46.2138613,31.6304732 46.2138613,31.4106025 L46.2138613,31.1291823 L47.003499,31.1291823 L47.003499,32.4473389 L43.2423109,32.4473389 L43.2423109,31.8361127 L43.4153133,31.8361127 C43.6234906,31.8361127 43.6995829,31.7539281 43.6995829,31.5201821 L43.6995829,28.595333 C43.6995829,28.403213 43.6927633,28.2932777 43.4153133,28.2932777 L43.2423109,28.2932777 L43.2423109,27.6824073 L46.920587,27.6824073 Z M26.5748529,28.3402404 C27.5356985,28.3402404 28.3145684,29.1122781 28.3145684,30.065051 C28.3145684,31.0174681 27.5356985,31.7895058 26.5748529,31.7895058 C25.6136484,31.7895058 24.8347785,31.0174681 24.8347785,30.065051 C24.8347785,29.1122781 25.6136484,28.3402404 26.5748529,28.3402404 Z M26.5748529,1.40572867 C25.6929711,1.40572867 24.97799,2.11408221 24.97799,2.98822818 L24.97799,2.98822818 L24.97799,3.77271816 C25.5063295,3.7417655 26.0386171,3.72539972 26.5748529,3.72539972 C27.1107298,3.72539972 27.6430174,3.7417655 28.1713568,3.77271816 L28.1713568,3.77271816 L28.1713568,2.98822818 C28.1713568,2.11408221 27.4563758,1.40572867 26.5748529,1.40572867 Z" id="path-3"></path>
    </defs>
    <g id="1---Elements-/-Logos-/-VyStar-/-Mark-+-Type" stroke="none" stroke-width="1" fill="none" fill-rule="evenodd">
        <mask id="mask-2" fill="white">
            <use xlink:href="#path-1"></use>
        </mask>
        <use id="Combined-Shape" fill="#18203F" xlink:href="#path-1"></use>
        <rect id="Rectangle" fill="#002C6C" fill-rule="nonzero" mask="url(#mask-2)" x="3.37755368" y="3.5" width="189" height="57"></rect>
        <g id="1---Elements-/-Logos-/-VyStar-/-Mark" transform="translate(3.524793, 3.702685)">
            <mask id="mask-4" fill="white">
                <use xlink:href="#path-3"></use>
            </mask>
            <use id="Mask" fill="#18203F" xlink:href="#path-3"></use>
            <rect id="Rectangle" fill="#002C6C" fill-rule="nonzero" mask="url(#mask-4)" x="0" y="-0.000181603166" width="53" height="56.5"></rect>
        </g>
    </g>
</svg>